PathFileType	4	(X/Y/Z)	Patient4_TMGait_0pt4_02_left_28.trc.trc
DataRate	CameraRate	NumFrames	NumMarkers	Units	OrigDataRate	OrigDataStartFrame	OrigNumFrames
75.268817204301	75.268817204301	4	33	mm	75.268817204301	36	       141
Frame#	Time	Sacral			L.Shoulder			Chest			R.Shoulder			Neck			R.ASIS			L.ASIS			R.Thigh.Superior			R.Thigh.Lateral			R.Thigh.Inferior			R.Patella			L.Thigh.Superior			L.Thigh.Lateral			L.Thigh.Inferior			L.Patella			L.Shank.Superior			L.Shank.Lateral			L.Shank.Inferior			R.Shank.Superior			R.Shank.Lateral			R.Shank.Inferior			R.Heel			R.Midfoot.Superior			R.Midfoot.Lateral			R.Toe			L.Heel			L.Midfoot.Lateral			L.Midfoot.Superior			L.Toe			L.Elbow			L.Wrist			R.Elbow			R.Wrist			
		X1	Y1	Z1	X2	Y2	Z2	X3	Y3	Z3	X4	Y4	Z4	X5	Y5	Z5	X6	Y6	Z6	X7	Y7	Z7	X8	Y8	Z8	X9	Y9	Z9	X10	Y10	Z10	X11	Y11	Z11	X12	Y12	Z12	X13	Y13	Z13	X14	Y14	Z14	X15	Y15	Z15	X16	Y16	Z16	X17	Y17	Z17	X18	Y18	Z18	X19	Y19	Z19	X20	Y20	Z20	X21	Y21	Z21	X22	Y22	Z22	X23	Y23	Z23	X24	Y24	Z24	X25	Y25	Z25	X26	Y26	Z26	X27	Y27	Z27	X28	Y28	Z28	X29	Y29	Z29	X30	Y30	Z30	X31	Y31	Z31	X32	Y32	Z32	X33	Y33	Z33	

36	38.025000000000	908.743693999288	996.809797339481	476.388171057469	1045.530594552268	1427.701221453763	277.237965658399	1170.939760079284	1365.239791351656	424.083897798388	1107.340511189163	1436.738327202595	607.130699050399	1048.197889749421	1490.087350030140	433.421889331356	1147.659940014008	937.848978547875	571.098567920109	1107.642686813456	956.246952313877	298.567303853713	1152.727918975673	724.554043943024	548.246994391688	1056.443804345793	627.292680710124	617.962375367891	1118.034656675861	560.580953936299	539.301983770607	1101.781109066686	466.118423640347	552.007191124160	1183.591782834911	762.502395214864	326.061122607572	1115.787652133575	634.020509403527	263.268522757031	1217.526484718727	569.567720049408	318.533574280558	1229.451745944347	496.870076117228	322.564696890490	1200.901499234564	421.363767191779	315.533031146245	1107.816169565956	308.431384925028	266.959817049535	1164.347786222545	194.788837990497	329.394231758238	1047.107576889798	388.655691481656	562.493382681095	951.516532405984	311.223790560262	631.168220156945	963.121766767247	205.791529283320	572.756879764537	793.503994176561	65.495242953826	554.554342505519	969.980474035477	99.215123500191	585.141662676169	877.693539698973	46.849853729507	625.381873845807	1084.300219659002	38.365298219513	609.659238756047	1040.852945878775	38.842207269324	374.667019137305	1108.124441863709	36.086512999275	288.574167705657	1192.478799166598	97.845018062857	310.179992536567	1318.360059115504	48.607600915997	270.572612580778	953.916045039738	1082.329014568360	184.159177038568	970.070257629176	821.141176027881	183.586736717592	1191.952886893647	1104.685784399770	732.380199542741	1434.861852011632	1128.974896251922	675.188612726389	
37	38.038285714286	908.668252958975	997.409952929657	472.257088413728	1045.840700088426	1428.707001665142	274.091418718031	1170.626581158209	1366.303968103526	421.483240954019	1105.998066985977	1437.478425775081	604.287456713039	1047.562749614096	1490.957408002505	430.188514258517	1147.276981402550	938.712004625026	567.674950176747	1108.289843824123	957.175072864484	295.209389343678	1154.202785474816	725.549420048976	545.419974472985	1058.931591641261	627.690114081606	615.234138512668	1121.900584671674	561.143558566652	537.136313079343	1106.578259565686	465.343749711454	551.217507733922	1183.379216240701	762.161669478034	322.259506044308	1113.601694575257	633.684423717589	261.089572667731	1214.927618816816	568.675092258618	316.149673385874	1226.267801311094	496.289381606767	321.193330373286	1197.541166539259	420.800215142010	314.442594370030	1104.213408457202	308.081718095414	266.159896902940	1159.907068234168	194.471629161345	329.133220169659	1049.837291176315	388.779757168708	561.623974624440	952.159803873745	313.772634171889	629.999738825505	962.245954668120	207.635480851546	572.626209134783	789.729268647059	70.885130767671	554.713552088117	966.908547085001	99.897696085356	585.342895364237	873.411499425058	49.640457661296	625.364353649292	1079.315987611528	38.080530460827	609.563641381943	1035.573585247441	38.867861301211	374.608261975630	1102.830933607902	36.050782137968	288.508945186356	1187.258011914066	97.747357338023	310.164018689713	1313.127605778947	48.313102103702	270.490536068052	960.135855787242	1082.001912795711	178.504411882690	982.732266674384	821.296280956830	176.102222745028	1183.357913334659	1103.388347186522	730.088095260056	1428.241747591735	1112.462770965892	675.389114240575	
38	38.051571428571	908.413650855788	998.122974891064	468.065583786894	1046.334961221108	1429.835327173958	270.903876128462	1170.342066289072	1367.407075829839	418.928255623527	1104.563657101733	1438.215663050758	601.448613233326	1046.944679422102	1491.884519147611	426.941271918159	1146.686915038542	939.667476774313	564.308257475640	1108.900213908620	958.102096112335	291.915795708403	1156.021446863880	726.730630104673	542.674443016232	1062.062390405818	628.101039656391	612.595095825450	1126.586067832312	561.868474037015	535.035572888783	1112.274921031851	464.704316904643	550.552119725250	1182.885259594641	761.704414819509	318.738955646108	1111.232063792459	633.425280972262	258.962961900955	1211.975864069673	567.798933591925	314.022613856833	1222.686029775492	495.707469024714	319.926893667341	1193.793851689823	420.272441829198	313.391260296750	1100.288736984237	307.705256146997	265.385749053247	1155.272106093250	194.158987212825	328.862541430841	1053.462851426322	389.021534098455	560.881587914108	953.593000529089	316.678596384361	628.901060170671	962.036621315090	209.837706750021	572.602891854913	786.436503157584	77.208258453049	554.883566070393	964.238436728068	100.725962837963	585.555374147317	869.391600561281	53.050165077872	625.366270337008	1074.316914258644	37.786883825619	609.457189819245	1030.234491907058	38.870998663967	374.570267764569	1097.476298495531	35.997233757541	288.461171846418	1181.989074340531	97.617889534177	310.162475478293	1307.845922362939	47.958674410151	270.435820888716	966.573864947197	1081.967011915481	172.705714401931	996.185033600713	821.961678477372	168.499593573448	1174.690174091728	1102.273654988171	727.646825919408	1420.687100268936	1095.166398650677	675.603428200483	
39	38.064857142857	907.953570305260	998.900434804611	463.852195391351	1047.030839845578	1431.024481981152	267.683114845369	1170.093909957278	1368.482976865492	416.431867825963	1103.053304476417	1438.913211089734	598.618535810855	1046.366964754716	1492.819269606452	423.699518598732	1145.865051569007	940.667107310824	561.038151156003	1109.433616062574	958.989840808297	288.706108847370	1158.213281804654	728.098720588879	540.014301540836	1065.921955793519	628.506564315035	610.070195975540	1132.153090996661	562.754663084632	533.003671673823	1118.924607475277	464.216431379529	549.976362306072	1182.098433755190	761.165073939671	315.570792901577	1108.763690213193	633.278791603570	256.853614745852	1208.727729414030	566.970793858333	312.143846340543	1218.758064377150	495.136545043075	318.729741334879	1189.719573120990	419.783214128797	312.344531143955	1096.106403912344	307.308592381625	264.575960258873	1150.480349608218	193.857644364494	328.556740073982	1058.052595403377	389.382548939280	560.237002274896	955.911259548408	319.956345318404	627.862937809248	962.553609727976	212.429296480486	572.669114979430	783.719277773286	84.574371975740	555.055243524936	961.995011729072	101.772918395517	585.769150287732	865.684399392680	57.198732463103	625.384203855417	1069.296171456067	37.446442461992	609.360184729100	1024.859348694298	38.859990788278	374.536072354251	1092.086701949966	35.931077828219	288.414421816632	1176.693328024822	97.468800843711	310.155985694993	1302.540969580426	47.562430459093	270.400411115046	973.203727808446	1082.192548657752	166.763403892968	1010.386194103956	823.148220346529	160.797971891487	1165.984737479968	1101.295143604778	725.061506605382	1412.076329226347	1077.227972860148	675.855989819413	
